<?xml version="1.0" encoding="utf-8" standalone="no"?>
<!DOCTYPE svg PUBLIC "-//W3C//DTD SVG 1.1//EN"
  "http://www.w3.org/Graphics/SVG/1.1/DTD/svg11.dtd">
<svg xmlns:xlink="http://www.w3.org/1999/xlink" width="864pt" height="432pt" viewBox="0 0 864 432" xmlns="http://www.w3.org/2000/svg" version="1.1">
 <metadata>
  <rdf:RDF xmlns:dc="http://purl.org/dc/elements/1.1/" xmlns:cc="http://creativecommons.org/ns#" xmlns:rdf="http://www.w3.org/1999/02/22-rdf-syntax-ns#">
   <cc:Work>
    <dc:type rdf:resource="http://purl.org/dc/dcmitype/StillImage"/>
    <dc:date>2025-07-14T15:05:48.569105</dc:date>
    <dc:format>image/svg+xml</dc:format>
    <dc:creator>
     <cc:Agent>
      <dc:title>Matplotlib v3.10.3, https://matplotlib.org/</dc:title>
     </cc:Agent>
    </dc:creator>
   </cc:Work>
  </rdf:RDF>
 </metadata>
 <defs>
  <style type="text/css">*{stroke-linejoin: round; stroke-linecap: butt}</style>
 </defs>
 <g id="figure_1">
  <g id="patch_1">
   <path d="M 0 432 
L 864 432 
L 864 0 
L 0 0 
z
" style="fill: #ffffff"/>
  </g>
  <g id="axes_1">
   <g id="patch_2">
    <path d="M 108 384.48 
L 432 384.48 
L 432 51.84 
L 108 51.84 
z
" style="fill: #ffffff"/>
   </g>
   <g id="matplotlib.axis_1">
    <g id="xtick_1">
     <g id="line2d_1">
      <defs>
       <path id="m58bf304532" d="M 0 0 
L 0 3.5 
" style="stroke: #000000; stroke-width: 0.8"/>
      </defs>
      <g>
       <use xlink:href="#m58bf304532" x="108" y="384.48" style="stroke: #000000; stroke-width: 0.8"/>
      </g>
     </g>
     <g id="text_1">
      <!-- 0.0 -->
      <g transform="translate(100.048438 399.078438) scale(0.1 -0.1)">
       <defs>
        <path id="DejaVuSans-30" d="M 2034 4250 
Q 1547 4250 1301 3770 
Q 1056 3291 1056 2328 
Q 1056 1369 1301 889 
Q 1547 409 2034 409 
Q 2525 409 2770 889 
Q 3016 1369 3016 2328 
Q 3016 3291 2770 3770 
Q 2525 4250 2034 4250 
z
M 2034 4750 
Q 2819 4750 3233 4129 
Q 3647 3509 3647 2328 
Q 3647 1150 3233 529 
Q 2819 -91 2034 -91 
Q 1250 -91 836 529 
Q 422 1150 422 2328 
Q 422 3509 836 4129 
Q 1250 4750 2034 4750 
z
" transform="scale(0.015625)"/>
        <path id="DejaVuSans-2e" d="M 684 794 
L 1344 794 
L 1344 0 
L 684 0 
L 684 794 
z
" transform="scale(0.015625)"/>
       </defs>
       <use xlink:href="#DejaVuSans-30"/>
       <use xlink:href="#DejaVuSans-2e" transform="translate(63.623047 0)"/>
       <use xlink:href="#DejaVuSans-30" transform="translate(95.410156 0)"/>
      </g>
     </g>
    </g>
    <g id="xtick_2">
     <g id="line2d_2">
      <g>
       <use xlink:href="#m58bf304532" x="148.5" y="384.48" style="stroke: #000000; stroke-width: 0.8"/>
      </g>
     </g>
     <g id="text_2">
      <!-- 2.5 -->
      <g transform="translate(140.548438 399.078438) scale(0.1 -0.1)">
       <defs>
        <path id="DejaVuSans-32" d="M 1228 531 
L 3431 531 
L 3431 0 
L 469 0 
L 469 531 
Q 828 903 1448 1529 
Q 2069 2156 2228 2338 
Q 2531 2678 2651 2914 
Q 2772 3150 2772 3378 
Q 2772 3750 2511 3984 
Q 2250 4219 1831 4219 
Q 1534 4219 1204 4116 
Q 875 4013 500 3803 
L 500 4441 
Q 881 4594 1212 4672 
Q 1544 4750 1819 4750 
Q 2544 4750 2975 4387 
Q 3406 4025 3406 3419 
Q 3406 3131 3298 2873 
Q 3191 2616 2906 2266 
Q 2828 2175 2409 1742 
Q 1991 1309 1228 531 
z
" transform="scale(0.015625)"/>
        <path id="DejaVuSans-35" d="M 691 4666 
L 3169 4666 
L 3169 4134 
L 1269 4134 
L 1269 2991 
Q 1406 3038 1543 3061 
Q 1681 3084 1819 3084 
Q 2600 3084 3056 2656 
Q 3513 2228 3513 1497 
Q 3513 744 3044 326 
Q 2575 -91 1722 -91 
Q 1428 -91 1123 -41 
Q 819 9 494 109 
L 494 744 
Q 775 591 1075 516 
Q 1375 441 1709 441 
Q 2250 441 2565 725 
Q 2881 1009 2881 1497 
Q 2881 1984 2565 2268 
Q 2250 2553 1709 2553 
Q 1456 2553 1204 2497 
Q 953 2441 691 2322 
L 691 4666 
z
" transform="scale(0.015625)"/>
       </defs>
       <use xlink:href="#DejaVuSans-32"/>
       <use xlink:href="#DejaVuSans-2e" transform="translate(63.623047 0)"/>
       <use xlink:href="#DejaVuSans-35" transform="translate(95.410156 0)"/>
      </g>
     </g>
    </g>
    <g id="xtick_3">
     <g id="line2d_3">
      <g>
       <use xlink:href="#m58bf304532" x="189" y="384.48" style="stroke: #000000; stroke-width: 0.8"/>
      </g>
     </g>
     <g id="text_3">
      <!-- 5.0 -->
      <g transform="translate(181.048438 399.078438) scale(0.1 -0.1)">
       <use xlink:href="#DejaVuSans-35"/>
       <use xlink:href="#DejaVuSans-2e" transform="translate(63.623047 0)"/>
       <use xlink:href="#DejaVuSans-30" transform="translate(95.410156 0)"/>
      </g>
     </g>
    </g>
    <g id="xtick_4">
     <g id="line2d_4">
      <g>
       <use xlink:href="#m58bf304532" x="229.5" y="384.48" style="stroke: #000000; stroke-width: 0.8"/>
      </g>
     </g>
     <g id="text_4">
      <!-- 7.5 -->
      <g transform="translate(221.548438 399.078438) scale(0.1 -0.1)">
       <defs>
        <path id="DejaVuSans-37" d="M 525 4666 
L 3525 4666 
L 3525 4397 
L 1831 0 
L 1172 0 
L 2766 4134 
L 525 4134 
L 525 4666 
z
" transform="scale(0.015625)"/>
       </defs>
       <use xlink:href="#DejaVuSans-37"/>
       <use xlink:href="#DejaVuSans-2e" transform="translate(63.623047 0)"/>
       <use xlink:href="#DejaVuSans-35" transform="translate(95.410156 0)"/>
      </g>
     </g>
    </g>
    <g id="xtick_5">
     <g id="line2d_5">
      <g>
       <use xlink:href="#m58bf304532" x="270" y="384.48" style="stroke: #000000; stroke-width: 0.8"/>
      </g>
     </g>
     <g id="text_5">
      <!-- 10.0 -->
      <g transform="translate(258.867188 399.078438) scale(0.1 -0.1)">
       <defs>
        <path id="DejaVuSans-31" d="M 794 531 
L 1825 531 
L 1825 4091 
L 703 3866 
L 703 4441 
L 1819 4666 
L 2450 4666 
L 2450 531 
L 3481 531 
L 3481 0 
L 794 0 
L 794 531 
z
" transform="scale(0.015625)"/>
       </defs>
       <use xlink:href="#DejaVuSans-31"/>
       <use xlink:href="#DejaVuSans-30" transform="translate(63.623047 0)"/>
       <use xlink:href="#DejaVuSans-2e" transform="translate(127.246094 0)"/>
       <use xlink:href="#DejaVuSans-30" transform="translate(159.033203 0)"/>
      </g>
     </g>
    </g>
    <g id="xtick_6">
     <g id="line2d_6">
      <g>
       <use xlink:href="#m58bf304532" x="310.5" y="384.48" style="stroke: #000000; stroke-width: 0.8"/>
      </g>
     </g>
     <g id="text_6">
      <!-- 12.5 -->
      <g transform="translate(299.367188 399.078438) scale(0.1 -0.1)">
       <use xlink:href="#DejaVuSans-31"/>
       <use xlink:href="#DejaVuSans-32" transform="translate(63.623047 0)"/>
       <use xlink:href="#DejaVuSans-2e" transform="translate(127.246094 0)"/>
       <use xlink:href="#DejaVuSans-35" transform="translate(159.033203 0)"/>
      </g>
     </g>
    </g>
    <g id="xtick_7">
     <g id="line2d_7">
      <g>
       <use xlink:href="#m58bf304532" x="351" y="384.48" style="stroke: #000000; stroke-width: 0.8"/>
      </g>
     </g>
     <g id="text_7">
      <!-- 15.0 -->
      <g transform="translate(339.867188 399.078438) scale(0.1 -0.1)">
       <use xlink:href="#DejaVuSans-31"/>
       <use xlink:href="#DejaVuSans-35" transform="translate(63.623047 0)"/>
       <use xlink:href="#DejaVuSans-2e" transform="translate(127.246094 0)"/>
       <use xlink:href="#DejaVuSans-30" transform="translate(159.033203 0)"/>
      </g>
     </g>
    </g>
    <g id="xtick_8">
     <g id="line2d_8">
      <g>
       <use xlink:href="#m58bf304532" x="391.5" y="384.48" style="stroke: #000000; stroke-width: 0.8"/>
      </g>
     </g>
     <g id="text_8">
      <!-- 17.5 -->
      <g transform="translate(380.367188 399.078438) scale(0.1 -0.1)">
       <use xlink:href="#DejaVuSans-31"/>
       <use xlink:href="#DejaVuSans-37" transform="translate(63.623047 0)"/>
       <use xlink:href="#DejaVuSans-2e" transform="translate(127.246094 0)"/>
       <use xlink:href="#DejaVuSans-35" transform="translate(159.033203 0)"/>
      </g>
     </g>
    </g>
    <g id="xtick_9">
     <g id="line2d_9">
      <g>
       <use xlink:href="#m58bf304532" x="432" y="384.48" style="stroke: #000000; stroke-width: 0.8"/>
      </g>
     </g>
     <g id="text_9">
      <!-- 20.0 -->
      <g transform="translate(420.867188 399.078438) scale(0.1 -0.1)">
       <use xlink:href="#DejaVuSans-32"/>
       <use xlink:href="#DejaVuSans-30" transform="translate(63.623047 0)"/>
       <use xlink:href="#DejaVuSans-2e" transform="translate(127.246094 0)"/>
       <use xlink:href="#DejaVuSans-30" transform="translate(159.033203 0)"/>
      </g>
     </g>
    </g>
    <g id="text_10">
     <!-- Image size in mega-pixels -->
     <g transform="translate(204.894531 412.756563) scale(0.1 -0.1)">
      <defs>
       <path id="DejaVuSans-49" d="M 628 4666 
L 1259 4666 
L 1259 0 
L 628 0 
L 628 4666 
z
" transform="scale(0.015625)"/>
       <path id="DejaVuSans-6d" d="M 3328 2828 
Q 3544 3216 3844 3400 
Q 4144 3584 4550 3584 
Q 5097 3584 5394 3201 
Q 5691 2819 5691 2113 
L 5691 0 
L 5113 0 
L 5113 2094 
Q 5113 2597 4934 2840 
Q 4756 3084 4391 3084 
Q 3944 3084 3684 2787 
Q 3425 2491 3425 1978 
L 3425 0 
L 2847 0 
L 2847 2094 
Q 2847 2600 2669 2842 
Q 2491 3084 2119 3084 
Q 1678 3084 1418 2786 
Q 1159 2488 1159 1978 
L 1159 0 
L 581 0 
L 581 3500 
L 1159 3500 
L 1159 2956 
Q 1356 3278 1631 3431 
Q 1906 3584 2284 3584 
Q 2666 3584 2933 3390 
Q 3200 3197 3328 2828 
z
" transform="scale(0.015625)"/>
       <path id="DejaVuSans-61" d="M 2194 1759 
Q 1497 1759 1228 1600 
Q 959 1441 959 1056 
Q 959 750 1161 570 
Q 1363 391 1709 391 
Q 2188 391 2477 730 
Q 2766 1069 2766 1631 
L 2766 1759 
L 2194 1759 
z
M 3341 1997 
L 3341 0 
L 2766 0 
L 2766 531 
Q 2569 213 2275 61 
Q 1981 -91 1556 -91 
Q 1019 -91 701 211 
Q 384 513 384 1019 
Q 384 1609 779 1909 
Q 1175 2209 1959 2209 
L 2766 2209 
L 2766 2266 
Q 2766 2663 2505 2880 
Q 2244 3097 1772 3097 
Q 1472 3097 1187 3025 
Q 903 2953 641 2809 
L 641 3341 
Q 956 3463 1253 3523 
Q 1550 3584 1831 3584 
Q 2591 3584 2966 3190 
Q 3341 2797 3341 1997 
z
" transform="scale(0.015625)"/>
       <path id="DejaVuSans-67" d="M 2906 1791 
Q 2906 2416 2648 2759 
Q 2391 3103 1925 3103 
Q 1463 3103 1205 2759 
Q 947 2416 947 1791 
Q 947 1169 1205 825 
Q 1463 481 1925 481 
Q 2391 481 2648 825 
Q 2906 1169 2906 1791 
z
M 3481 434 
Q 3481 -459 3084 -895 
Q 2688 -1331 1869 -1331 
Q 1566 -1331 1297 -1286 
Q 1028 -1241 775 -1147 
L 775 -588 
Q 1028 -725 1275 -790 
Q 1522 -856 1778 -856 
Q 2344 -856 2625 -561 
Q 2906 -266 2906 331 
L 2906 616 
Q 2728 306 2450 153 
Q 2172 0 1784 0 
Q 1141 0 747 490 
Q 353 981 353 1791 
Q 353 2603 747 3093 
Q 1141 3584 1784 3584 
Q 2172 3584 2450 3431 
Q 2728 3278 2906 2969 
L 2906 3500 
L 3481 3500 
L 3481 434 
z
" transform="scale(0.015625)"/>
       <path id="DejaVuSans-65" d="M 3597 1894 
L 3597 1613 
L 953 1613 
Q 991 1019 1311 708 
Q 1631 397 2203 397 
Q 2534 397 2845 478 
Q 3156 559 3463 722 
L 3463 178 
Q 3153 47 2828 -22 
Q 2503 -91 2169 -91 
Q 1331 -91 842 396 
Q 353 884 353 1716 
Q 353 2575 817 3079 
Q 1281 3584 2069 3584 
Q 2775 3584 3186 3129 
Q 3597 2675 3597 1894 
z
M 3022 2063 
Q 3016 2534 2758 2815 
Q 2500 3097 2075 3097 
Q 1594 3097 1305 2825 
Q 1016 2553 972 2059 
L 3022 2063 
z
" transform="scale(0.015625)"/>
       <path id="DejaVuSans-20" transform="scale(0.015625)"/>
       <path id="DejaVuSans-73" d="M 2834 3397 
L 2834 2853 
Q 2591 2978 2328 3040 
Q 2066 3103 1784 3103 
Q 1356 3103 1142 2972 
Q 928 2841 928 2578 
Q 928 2378 1081 2264 
Q 1234 2150 1697 2047 
L 1894 2003 
Q 2506 1872 2764 1633 
Q 3022 1394 3022 966 
Q 3022 478 2636 193 
Q 2250 -91 1575 -91 
Q 1294 -91 989 -36 
Q 684 19 347 128 
L 347 722 
Q 666 556 975 473 
Q 1284 391 1588 391 
Q 1994 391 2212 530 
Q 2431 669 2431 922 
Q 2431 1156 2273 1281 
Q 2116 1406 1581 1522 
L 1381 1569 
Q 847 1681 609 1914 
Q 372 2147 372 2553 
Q 372 3047 722 3315 
Q 1072 3584 1716 3584 
Q 2034 3584 2315 3537 
Q 2597 3491 2834 3397 
z
" transform="scale(0.015625)"/>
       <path id="DejaVuSans-69" d="M 603 3500 
L 1178 3500 
L 1178 0 
L 603 0 
L 603 3500 
z
M 603 4863 
L 1178 4863 
L 1178 4134 
L 603 4134 
L 603 4863 
z
" transform="scale(0.015625)"/>
       <path id="DejaVuSans-7a" d="M 353 3500 
L 3084 3500 
L 3084 2975 
L 922 459 
L 3084 459 
L 3084 0 
L 275 0 
L 275 525 
L 2438 3041 
L 353 3041 
L 353 3500 
z
" transform="scale(0.015625)"/>
       <path id="DejaVuSans-6e" d="M 3513 2113 
L 3513 0 
L 2938 0 
L 2938 2094 
Q 2938 2591 2744 2837 
Q 2550 3084 2163 3084 
Q 1697 3084 1428 2787 
Q 1159 2491 1159 1978 
L 1159 0 
L 581 0 
L 581 3500 
L 1159 3500 
L 1159 2956 
Q 1366 3272 1645 3428 
Q 1925 3584 2291 3584 
Q 2894 3584 3203 3211 
Q 3513 2838 3513 2113 
z
" transform="scale(0.015625)"/>
       <path id="DejaVuSans-2d" d="M 313 2009 
L 1997 2009 
L 1997 1497 
L 313 1497 
L 313 2009 
z
" transform="scale(0.015625)"/>
       <path id="DejaVuSans-70" d="M 1159 525 
L 1159 -1331 
L 581 -1331 
L 581 3500 
L 1159 3500 
L 1159 2969 
Q 1341 3281 1617 3432 
Q 1894 3584 2278 3584 
Q 2916 3584 3314 3078 
Q 3713 2572 3713 1747 
Q 3713 922 3314 415 
Q 2916 -91 2278 -91 
Q 1894 -91 1617 61 
Q 1341 213 1159 525 
z
M 3116 1747 
Q 3116 2381 2855 2742 
Q 2594 3103 2138 3103 
Q 1681 3103 1420 2742 
Q 1159 2381 1159 1747 
Q 1159 1113 1420 752 
Q 1681 391 2138 391 
Q 2594 391 2855 752 
Q 3116 1113 3116 1747 
z
" transform="scale(0.015625)"/>
       <path id="DejaVuSans-78" d="M 3513 3500 
L 2247 1797 
L 3578 0 
L 2900 0 
L 1881 1375 
L 863 0 
L 184 0 
L 1544 1831 
L 300 3500 
L 978 3500 
L 1906 2253 
L 2834 3500 
L 3513 3500 
z
" transform="scale(0.015625)"/>
       <path id="DejaVuSans-6c" d="M 603 4863 
L 1178 4863 
L 1178 0 
L 603 0 
L 603 4863 
z
" transform="scale(0.015625)"/>
      </defs>
      <use xlink:href="#DejaVuSans-49"/>
      <use xlink:href="#DejaVuSans-6d" transform="translate(29.492188 0)"/>
      <use xlink:href="#DejaVuSans-61" transform="translate(126.904297 0)"/>
      <use xlink:href="#DejaVuSans-67" transform="translate(188.183594 0)"/>
      <use xlink:href="#DejaVuSans-65" transform="translate(251.660156 0)"/>
      <use xlink:href="#DejaVuSans-20" transform="translate(313.183594 0)"/>
      <use xlink:href="#DejaVuSans-73" transform="translate(344.970703 0)"/>
      <use xlink:href="#DejaVuSans-69" transform="translate(397.070312 0)"/>
      <use xlink:href="#DejaVuSans-7a" transform="translate(424.853516 0)"/>
      <use xlink:href="#DejaVuSans-65" transform="translate(477.34375 0)"/>
      <use xlink:href="#DejaVuSans-20" transform="translate(538.867188 0)"/>
      <use xlink:href="#DejaVuSans-69" transform="translate(570.654297 0)"/>
      <use xlink:href="#DejaVuSans-6e" transform="translate(598.4375 0)"/>
      <use xlink:href="#DejaVuSans-20" transform="translate(661.816406 0)"/>
      <use xlink:href="#DejaVuSans-6d" transform="translate(693.603516 0)"/>
      <use xlink:href="#DejaVuSans-65" transform="translate(791.015625 0)"/>
      <use xlink:href="#DejaVuSans-67" transform="translate(852.539062 0)"/>
      <use xlink:href="#DejaVuSans-61" transform="translate(916.015625 0)"/>
      <use xlink:href="#DejaVuSans-2d" transform="translate(977.294922 0)"/>
      <use xlink:href="#DejaVuSans-70" transform="translate(1013.378906 0)"/>
      <use xlink:href="#DejaVuSans-69" transform="translate(1076.855469 0)"/>
      <use xlink:href="#DejaVuSans-78" transform="translate(1104.638672 0)"/>
      <use xlink:href="#DejaVuSans-65" transform="translate(1160.693359 0)"/>
      <use xlink:href="#DejaVuSans-6c" transform="translate(1222.216797 0)"/>
      <use xlink:href="#DejaVuSans-73" transform="translate(1250 0)"/>
     </g>
    </g>
   </g>
   <g id="matplotlib.axis_2">
    <g id="ytick_1">
     <g id="line2d_10">
      <defs>
       <path id="mc77e5cfa4e" d="M 0 0 
L -3.5 0 
" style="stroke: #000000; stroke-width: 0.8"/>
      </defs>
      <g>
       <use xlink:href="#mc77e5cfa4e" x="108" y="371.890105" style="stroke: #000000; stroke-width: 0.8"/>
      </g>
     </g>
     <g id="text_11">
      <!-- 1 -->
      <g transform="translate(94.6375 375.689324) scale(0.1 -0.1)">
       <use xlink:href="#DejaVuSans-31"/>
      </g>
     </g>
    </g>
    <g id="ytick_2">
     <g id="line2d_11">
      <g>
       <use xlink:href="#mc77e5cfa4e" x="108" y="341.555749" style="stroke: #000000; stroke-width: 0.8"/>
      </g>
     </g>
     <g id="text_12">
      <!-- 2 -->
      <g transform="translate(94.6375 345.354968) scale(0.1 -0.1)">
       <use xlink:href="#DejaVuSans-32"/>
      </g>
     </g>
    </g>
    <g id="ytick_3">
     <g id="line2d_12">
      <g>
       <use xlink:href="#mc77e5cfa4e" x="108" y="301.455912" style="stroke: #000000; stroke-width: 0.8"/>
      </g>
     </g>
     <g id="text_13">
      <!-- 5 -->
      <g transform="translate(94.6375 305.255131) scale(0.1 -0.1)">
       <use xlink:href="#DejaVuSans-35"/>
      </g>
     </g>
    </g>
    <g id="ytick_4">
     <g id="line2d_13">
      <g>
       <use xlink:href="#mc77e5cfa4e" x="108" y="271.121557" style="stroke: #000000; stroke-width: 0.8"/>
      </g>
     </g>
     <g id="text_14">
      <!-- 10 -->
      <g transform="translate(88.275 274.920776) scale(0.1 -0.1)">
       <use xlink:href="#DejaVuSans-31"/>
       <use xlink:href="#DejaVuSans-30" transform="translate(63.623047 0)"/>
      </g>
     </g>
    </g>
    <g id="ytick_5">
     <g id="line2d_14">
      <g>
       <use xlink:href="#mc77e5cfa4e" x="108" y="240.787201" style="stroke: #000000; stroke-width: 0.8"/>
      </g>
     </g>
     <g id="text_15">
      <!-- 20 -->
      <g transform="translate(88.275 244.58642) scale(0.1 -0.1)">
       <use xlink:href="#DejaVuSans-32"/>
       <use xlink:href="#DejaVuSans-30" transform="translate(63.623047 0)"/>
      </g>
     </g>
    </g>
    <g id="ytick_6">
     <g id="line2d_15">
      <g>
       <use xlink:href="#mc77e5cfa4e" x="108" y="200.687364" style="stroke: #000000; stroke-width: 0.8"/>
      </g>
     </g>
     <g id="text_16">
      <!-- 50 -->
      <g transform="translate(88.275 204.486583) scale(0.1 -0.1)">
       <use xlink:href="#DejaVuSans-35"/>
       <use xlink:href="#DejaVuSans-30" transform="translate(63.623047 0)"/>
      </g>
     </g>
    </g>
    <g id="ytick_7">
     <g id="line2d_16">
      <g>
       <use xlink:href="#mc77e5cfa4e" x="108" y="170.353009" style="stroke: #000000; stroke-width: 0.8"/>
      </g>
     </g>
     <g id="text_17">
      <!-- 100 -->
      <g transform="translate(81.9125 174.152227) scale(0.1 -0.1)">
       <use xlink:href="#DejaVuSans-31"/>
       <use xlink:href="#DejaVuSans-30" transform="translate(63.623047 0)"/>
       <use xlink:href="#DejaVuSans-30" transform="translate(127.246094 0)"/>
      </g>
     </g>
    </g>
    <g id="ytick_8">
     <g id="line2d_17">
      <g>
       <use xlink:href="#mc77e5cfa4e" x="108" y="140.018653" style="stroke: #000000; stroke-width: 0.8"/>
      </g>
     </g>
     <g id="text_18">
      <!-- 200 -->
      <g transform="translate(81.9125 143.817872) scale(0.1 -0.1)">
       <use xlink:href="#DejaVuSans-32"/>
       <use xlink:href="#DejaVuSans-30" transform="translate(63.623047 0)"/>
       <use xlink:href="#DejaVuSans-30" transform="translate(127.246094 0)"/>
      </g>
     </g>
    </g>
    <g id="ytick_9">
     <g id="line2d_18">
      <g>
       <use xlink:href="#mc77e5cfa4e" x="108" y="99.918816" style="stroke: #000000; stroke-width: 0.8"/>
      </g>
     </g>
     <g id="text_19">
      <!-- 500 -->
      <g transform="translate(81.9125 103.718035) scale(0.1 -0.1)">
       <use xlink:href="#DejaVuSans-35"/>
       <use xlink:href="#DejaVuSans-30" transform="translate(63.623047 0)"/>
       <use xlink:href="#DejaVuSans-30" transform="translate(127.246094 0)"/>
      </g>
     </g>
    </g>
    <g id="ytick_10">
     <g id="line2d_19">
      <g>
       <use xlink:href="#mc77e5cfa4e" x="108" y="69.584461" style="stroke: #000000; stroke-width: 0.8"/>
      </g>
     </g>
     <g id="text_20">
      <!-- 1000 -->
      <g transform="translate(75.55 73.383679) scale(0.1 -0.1)">
       <use xlink:href="#DejaVuSans-31"/>
       <use xlink:href="#DejaVuSans-30" transform="translate(63.623047 0)"/>
       <use xlink:href="#DejaVuSans-30" transform="translate(127.246094 0)"/>
       <use xlink:href="#DejaVuSans-30" transform="translate(190.869141 0)"/>
      </g>
     </g>
    </g>
    <g id="text_21">
     <!-- Frame per second (log scale) -->
     <g transform="translate(69.470312 290.642812) rotate(-90) scale(0.1 -0.1)">
      <defs>
       <path id="DejaVuSans-46" d="M 628 4666 
L 3309 4666 
L 3309 4134 
L 1259 4134 
L 1259 2759 
L 3109 2759 
L 3109 2228 
L 1259 2228 
L 1259 0 
L 628 0 
L 628 4666 
z
" transform="scale(0.015625)"/>
       <path id="DejaVuSans-72" d="M 2631 2963 
Q 2534 3019 2420 3045 
Q 2306 3072 2169 3072 
Q 1681 3072 1420 2755 
Q 1159 2438 1159 1844 
L 1159 0 
L 581 0 
L 581 3500 
L 1159 3500 
L 1159 2956 
Q 1341 3275 1631 3429 
Q 1922 3584 2338 3584 
Q 2397 3584 2469 3576 
Q 2541 3569 2628 3553 
L 2631 2963 
z
" transform="scale(0.015625)"/>
       <path id="DejaVuSans-63" d="M 3122 3366 
L 3122 2828 
Q 2878 2963 2633 3030 
Q 2388 3097 2138 3097 
Q 1578 3097 1268 2742 
Q 959 2388 959 1747 
Q 959 1106 1268 751 
Q 1578 397 2138 397 
Q 2388 397 2633 464 
Q 2878 531 3122 666 
L 3122 134 
Q 2881 22 2623 -34 
Q 2366 -91 2075 -91 
Q 1284 -91 818 406 
Q 353 903 353 1747 
Q 353 2603 823 3093 
Q 1294 3584 2113 3584 
Q 2378 3584 2631 3529 
Q 2884 3475 3122 3366 
z
" transform="scale(0.015625)"/>
       <path id="DejaVuSans-6f" d="M 1959 3097 
Q 1497 3097 1228 2736 
Q 959 2375 959 1747 
Q 959 1119 1226 758 
Q 1494 397 1959 397 
Q 2419 397 2687 759 
Q 2956 1122 2956 1747 
Q 2956 2369 2687 2733 
Q 2419 3097 1959 3097 
z
M 1959 3584 
Q 2709 3584 3137 3096 
Q 3566 2609 3566 1747 
Q 3566 888 3137 398 
Q 2709 -91 1959 -91 
Q 1206 -91 779 398 
Q 353 888 353 1747 
Q 353 2609 779 3096 
Q 1206 3584 1959 3584 
z
" transform="scale(0.015625)"/>
       <path id="DejaVuSans-64" d="M 2906 2969 
L 2906 4863 
L 3481 4863 
L 3481 0 
L 2906 0 
L 2906 525 
Q 2725 213 2448 61 
Q 2172 -91 1784 -91 
Q 1150 -91 751 415 
Q 353 922 353 1747 
Q 353 2572 751 3078 
Q 1150 3584 1784 3584 
Q 2172 3584 2448 3432 
Q 2725 3281 2906 2969 
z
M 947 1747 
Q 947 1113 1208 752 
Q 1469 391 1925 391 
Q 2381 391 2643 752 
Q 2906 1113 2906 1747 
Q 2906 2381 2643 2742 
Q 2381 3103 1925 3103 
Q 1469 3103 1208 2742 
Q 947 2381 947 1747 
z
" transform="scale(0.015625)"/>
       <path id="DejaVuSans-28" d="M 1984 4856 
Q 1566 4138 1362 3434 
Q 1159 2731 1159 2009 
Q 1159 1288 1364 580 
Q 1569 -128 1984 -844 
L 1484 -844 
Q 1016 -109 783 600 
Q 550 1309 550 2009 
Q 550 2706 781 3412 
Q 1013 4119 1484 4856 
L 1984 4856 
z
" transform="scale(0.015625)"/>
       <path id="DejaVuSans-29" d="M 513 4856 
L 1013 4856 
Q 1481 4119 1714 3412 
Q 1947 2706 1947 2009 
Q 1947 1309 1714 600 
Q 1481 -109 1013 -844 
L 513 -844 
Q 928 -128 1133 580 
Q 1338 1288 1338 2009 
Q 1338 2731 1133 3434 
Q 928 4138 513 4856 
z
" transform="scale(0.015625)"/>
      </defs>
      <use xlink:href="#DejaVuSans-46"/>
      <use xlink:href="#DejaVuSans-72" transform="translate(50.269531 0)"/>
      <use xlink:href="#DejaVuSans-61" transform="translate(91.382812 0)"/>
      <use xlink:href="#DejaVuSans-6d" transform="translate(152.662109 0)"/>
      <use xlink:href="#DejaVuSans-65" transform="translate(250.074219 0)"/>
      <use xlink:href="#DejaVuSans-20" transform="translate(311.597656 0)"/>
      <use xlink:href="#DejaVuSans-70" transform="translate(343.384766 0)"/>
      <use xlink:href="#DejaVuSans-65" transform="translate(406.861328 0)"/>
      <use xlink:href="#DejaVuSans-72" transform="translate(468.384766 0)"/>
      <use xlink:href="#DejaVuSans-20" transform="translate(509.498047 0)"/>
      <use xlink:href="#DejaVuSans-73" transform="translate(541.285156 0)"/>
      <use xlink:href="#DejaVuSans-65" transform="translate(593.384766 0)"/>
      <use xlink:href="#DejaVuSans-63" transform="translate(654.908203 0)"/>
      <use xlink:href="#DejaVuSans-6f" transform="translate(709.888672 0)"/>
      <use xlink:href="#DejaVuSans-6e" transform="translate(771.070312 0)"/>
      <use xlink:href="#DejaVuSans-64" transform="translate(834.449219 0)"/>
      <use xlink:href="#DejaVuSans-20" transform="translate(897.925781 0)"/>
      <use xlink:href="#DejaVuSans-28" transform="translate(929.712891 0)"/>
      <use xlink:href="#DejaVuSans-6c" transform="translate(968.726562 0)"/>
      <use xlink:href="#DejaVuSans-6f" transform="translate(996.509766 0)"/>
      <use xlink:href="#DejaVuSans-67" transform="translate(1057.691406 0)"/>
      <use xlink:href="#DejaVuSans-20" transform="translate(1121.167969 0)"/>
      <use xlink:href="#DejaVuSans-73" transform="translate(1152.955078 0)"/>
      <use xlink:href="#DejaVuSans-63" transform="translate(1205.054688 0)"/>
      <use xlink:href="#DejaVuSans-61" transform="translate(1260.035156 0)"/>
      <use xlink:href="#DejaVuSans-6c" transform="translate(1321.314453 0)"/>
      <use xlink:href="#DejaVuSans-65" transform="translate(1349.097656 0)"/>
      <use xlink:href="#DejaVuSans-29" transform="translate(1410.621094 0)"/>
     </g>
    </g>
   </g>
   <g id="LineCollection_1">
    <path d="M 124.575565 433 
L 124.575565 -1 
" clip-path="url(#pb8211a4e26)" style="fill: none; stroke-dasharray: 5.55,2.4; stroke-dashoffset: 0; stroke: #000000; stroke-opacity: 0.4; stroke-width: 1.5"/>
    <path d="M 148.119705 433 
L 148.119705 -1 
" clip-path="url(#pb8211a4e26)" style="fill: none; stroke-dasharray: 5.55,2.4; stroke-dashoffset: 0; stroke: #000000; stroke-opacity: 0.4; stroke-width: 1.5"/>
    <path d="M 180.668178 433 
L 180.668178 -1 
" clip-path="url(#pb8211a4e26)" style="fill: none; stroke-dasharray: 5.55,2.4; stroke-dashoffset: 0; stroke: #000000; stroke-opacity: 0.4; stroke-width: 1.5"/>
    <path d="M 208.828816 433 
L 208.828816 -1 
" clip-path="url(#pb8211a4e26)" style="fill: none; stroke-dasharray: 5.55,2.4; stroke-dashoffset: 0; stroke: #000000; stroke-opacity: 0.4; stroke-width: 1.5"/>
    <path d="M 272.698758 433 
L 272.698758 -1 
" clip-path="url(#pb8211a4e26)" style="fill: none; stroke-dasharray: 5.55,2.4; stroke-dashoffset: 0; stroke: #000000; stroke-opacity: 0.4; stroke-width: 1.5"/>
    <path d="M 300.8205 433 
L 300.8205 -1 
" clip-path="url(#pb8211a4e26)" style="fill: none; stroke-dasharray: 5.55,2.4; stroke-dashoffset: 0; stroke: #000000; stroke-opacity: 0.4; stroke-width: 1.5"/>
    <path d="M 379.790899 433 
L 379.790899 -1 
" clip-path="url(#pb8211a4e26)" style="fill: none; stroke-dasharray: 5.55,2.4; stroke-dashoffset: 0; stroke: #000000; stroke-opacity: 0.4; stroke-width: 1.5"/>
   </g>
   <g id="line2d_20">
    <path d="M 124.575565 250.578712 
L 148.119705 281.121465 
L 180.668178 299.536533 
L 208.828816 311.178025 
L 272.240395 331.60929 
L 300.8205 333.40802 
L 379.790899 347.487891 
" clip-path="url(#pb8211a4e26)" style="fill: none; stroke: #1f77b4; stroke-width: 1.5; stroke-linecap: square"/>
    <defs>
     <path id="m336a021f6d" d="M 0 3 
C 0.795609 3 1.55874 2.683901 2.12132 2.12132 
C 2.683901 1.55874 3 0.795609 3 0 
C 3 -0.795609 2.683901 -1.55874 2.12132 -2.12132 
C 1.55874 -2.683901 0.795609 -3 0 -3 
C -0.795609 -3 -1.55874 -2.683901 -2.12132 -2.12132 
C -2.683901 -1.55874 -3 -0.795609 -3 0 
C -3 0.795609 -2.683901 1.55874 -2.12132 2.12132 
C -1.55874 2.683901 -0.795609 3 0 3 
z
" style="stroke: #1f77b4"/>
    </defs>
    <g clip-path="url(#pb8211a4e26)">
     <use xlink:href="#m336a021f6d" x="124.575565" y="250.578712" style="fill: #1f77b4; stroke: #1f77b4"/>
     <use xlink:href="#m336a021f6d" x="148.119705" y="281.121465" style="fill: #1f77b4; stroke: #1f77b4"/>
     <use xlink:href="#m336a021f6d" x="180.668178" y="299.536533" style="fill: #1f77b4; stroke: #1f77b4"/>
     <use xlink:href="#m336a021f6d" x="208.828816" y="311.178025" style="fill: #1f77b4; stroke: #1f77b4"/>
     <use xlink:href="#m336a021f6d" x="272.240395" y="331.60929" style="fill: #1f77b4; stroke: #1f77b4"/>
     <use xlink:href="#m336a021f6d" x="300.8205" y="333.40802" style="fill: #1f77b4; stroke: #1f77b4"/>
     <use xlink:href="#m336a021f6d" x="379.790899" y="347.487891" style="fill: #1f77b4; stroke: #1f77b4"/>
    </g>
   </g>
   <g id="line2d_21">
    <path d="M 124.575565 186.290974 
L 148.119705 230.610431 
L 180.668178 253.59964 
L 208.828816 272.21293 
L 272.240395 293.785093 
L 300.8205 294.749497 
L 379.790899 315.268805 
" clip-path="url(#pb8211a4e26)" style="fill: none; stroke: #ff7f0e; stroke-width: 1.5; stroke-linecap: square"/>
    <defs>
     <path id="m9d7976aec3" d="M 0 3 
C 0.795609 3 1.55874 2.683901 2.12132 2.12132 
C 2.683901 1.55874 3 0.795609 3 0 
C 3 -0.795609 2.683901 -1.55874 2.12132 -2.12132 
C 1.55874 -2.683901 0.795609 -3 0 -3 
C -0.795609 -3 -1.55874 -2.683901 -2.12132 -2.12132 
C -2.683901 -1.55874 -3 -0.795609 -3 0 
C -3 0.795609 -2.683901 1.55874 -2.12132 2.12132 
C -1.55874 2.683901 -0.795609 3 0 3 
z
" style="stroke: #ff7f0e"/>
    </defs>
    <g clip-path="url(#pb8211a4e26)">
     <use xlink:href="#m9d7976aec3" x="124.575565" y="186.290974" style="fill: #ff7f0e; stroke: #ff7f0e"/>
     <use xlink:href="#m9d7976aec3" x="148.119705" y="230.610431" style="fill: #ff7f0e; stroke: #ff7f0e"/>
     <use xlink:href="#m9d7976aec3" x="180.668178" y="253.59964" style="fill: #ff7f0e; stroke: #ff7f0e"/>
     <use xlink:href="#m9d7976aec3" x="208.828816" y="272.21293" style="fill: #ff7f0e; stroke: #ff7f0e"/>
     <use xlink:href="#m9d7976aec3" x="272.240395" y="293.785093" style="fill: #ff7f0e; stroke: #ff7f0e"/>
     <use xlink:href="#m9d7976aec3" x="300.8205" y="294.749497" style="fill: #ff7f0e; stroke: #ff7f0e"/>
     <use xlink:href="#m9d7976aec3" x="379.790899" y="315.268805" style="fill: #ff7f0e; stroke: #ff7f0e"/>
    </g>
   </g>
   <g id="line2d_22">
    <path d="M 124.575565 127.085406 
L 148.119705 161.612199 
L 180.668178 192.44147 
L 208.828816 201.919877 
L 272.240395 225.870748 
L 300.8205 228.367012 
L 379.790899 265.148602 
" clip-path="url(#pb8211a4e26)" style="fill: none; stroke-dasharray: 5.55,2.4; stroke-dashoffset: 0; stroke: #2ca02c; stroke-width: 1.5"/>
    <defs>
     <path id="mdf1884b741" d="M 0 3 
C 0.795609 3 1.55874 2.683901 2.12132 2.12132 
C 2.683901 1.55874 3 0.795609 3 0 
C 3 -0.795609 2.683901 -1.55874 2.12132 -2.12132 
C 1.55874 -2.683901 0.795609 -3 0 -3 
C -0.795609 -3 -1.55874 -2.683901 -2.12132 -2.12132 
C -2.683901 -1.55874 -3 -0.795609 -3 0 
C -3 0.795609 -2.683901 1.55874 -2.12132 2.12132 
C -1.55874 2.683901 -0.795609 3 0 3 
z
" style="stroke: #2ca02c"/>
    </defs>
    <g clip-path="url(#pb8211a4e26)">
     <use xlink:href="#mdf1884b741" x="124.575565" y="127.085406" style="fill: #2ca02c; stroke: #2ca02c"/>
     <use xlink:href="#mdf1884b741" x="148.119705" y="161.612199" style="fill: #2ca02c; stroke: #2ca02c"/>
     <use xlink:href="#mdf1884b741" x="180.668178" y="192.44147" style="fill: #2ca02c; stroke: #2ca02c"/>
     <use xlink:href="#mdf1884b741" x="208.828816" y="201.919877" style="fill: #2ca02c; stroke: #2ca02c"/>
     <use xlink:href="#mdf1884b741" x="272.240395" y="225.870748" style="fill: #2ca02c; stroke: #2ca02c"/>
     <use xlink:href="#mdf1884b741" x="300.8205" y="228.367012" style="fill: #2ca02c; stroke: #2ca02c"/>
     <use xlink:href="#mdf1884b741" x="379.790899" y="265.148602" style="fill: #2ca02c; stroke: #2ca02c"/>
    </g>
   </g>
   <g id="patch_3">
    <path d="M 108 384.48 
L 108 51.84 
" style="fill: none; stroke: #000000; stroke-width: 0.8; stroke-linejoin: miter; stroke-linecap: square"/>
   </g>
   <g id="patch_4">
    <path d="M 432 384.48 
L 432 51.84 
" style="fill: none; stroke: #000000; stroke-width: 0.8; stroke-linejoin: miter; stroke-linecap: square"/>
   </g>
   <g id="patch_5">
    <path d="M 108 384.48 
L 432 384.48 
" style="fill: none; stroke: #000000; stroke-width: 0.8; stroke-linejoin: miter; stroke-linecap: square"/>
   </g>
   <g id="patch_6">
    <path d="M 108 51.84 
L 432 51.84 
" style="fill: none; stroke: #000000; stroke-width: 0.8; stroke-linejoin: miter; stroke-linecap: square"/>
   </g>
   <g id="text_22">
    <!-- Pilatus1M -->
    <g transform="translate(126.031346 349.548555) rotate(-270) scale(0.07 -0.07)">
     <defs>
      <path id="DejaVuSans-50" d="M 1259 4147 
L 1259 2394 
L 2053 2394 
Q 2494 2394 2734 2622 
Q 2975 2850 2975 3272 
Q 2975 3691 2734 3919 
Q 2494 4147 2053 4147 
L 1259 4147 
z
M 628 4666 
L 2053 4666 
Q 2838 4666 3239 4311 
Q 3641 3956 3641 3272 
Q 3641 2581 3239 2228 
Q 2838 1875 2053 1875 
L 1259 1875 
L 1259 0 
L 628 0 
L 628 4666 
z
" transform="scale(0.015625)"/>
      <path id="DejaVuSans-74" d="M 1172 4494 
L 1172 3500 
L 2356 3500 
L 2356 3053 
L 1172 3053 
L 1172 1153 
Q 1172 725 1289 603 
Q 1406 481 1766 481 
L 2356 481 
L 2356 0 
L 1766 0 
Q 1100 0 847 248 
Q 594 497 594 1153 
L 594 3053 
L 172 3053 
L 172 3500 
L 594 3500 
L 594 4494 
L 1172 4494 
z
" transform="scale(0.015625)"/>
      <path id="DejaVuSans-75" d="M 544 1381 
L 544 3500 
L 1119 3500 
L 1119 1403 
Q 1119 906 1312 657 
Q 1506 409 1894 409 
Q 2359 409 2629 706 
Q 2900 1003 2900 1516 
L 2900 3500 
L 3475 3500 
L 3475 0 
L 2900 0 
L 2900 538 
Q 2691 219 2414 64 
Q 2138 -91 1772 -91 
Q 1169 -91 856 284 
Q 544 659 544 1381 
z
M 1991 3584 
L 1991 3584 
z
" transform="scale(0.015625)"/>
      <path id="DejaVuSans-4d" d="M 628 4666 
L 1569 4666 
L 2759 1491 
L 3956 4666 
L 4897 4666 
L 4897 0 
L 4281 0 
L 4281 4097 
L 3078 897 
L 2444 897 
L 1241 4097 
L 1241 0 
L 628 0 
L 628 4666 
z
" transform="scale(0.015625)"/>
     </defs>
     <use xlink:href="#DejaVuSans-50"/>
     <use xlink:href="#DejaVuSans-69" transform="translate(58.052734 0)"/>
     <use xlink:href="#DejaVuSans-6c" transform="translate(85.835938 0)"/>
     <use xlink:href="#DejaVuSans-61" transform="translate(113.619141 0)"/>
     <use xlink:href="#DejaVuSans-74" transform="translate(174.898438 0)"/>
     <use xlink:href="#DejaVuSans-75" transform="translate(214.107422 0)"/>
     <use xlink:href="#DejaVuSans-73" transform="translate(277.486328 0)"/>
     <use xlink:href="#DejaVuSans-31" transform="translate(329.585938 0)"/>
     <use xlink:href="#DejaVuSans-4d" transform="translate(393.208984 0)"/>
    </g>
   </g>
   <g id="text_23">
    <!-- Pilatus2M -->
    <g transform="translate(149.575486 349.548555) rotate(-270) scale(0.07 -0.07)">
     <use xlink:href="#DejaVuSans-50"/>
     <use xlink:href="#DejaVuSans-69" transform="translate(58.052734 0)"/>
     <use xlink:href="#DejaVuSans-6c" transform="translate(85.835938 0)"/>
     <use xlink:href="#DejaVuSans-61" transform="translate(113.619141 0)"/>
     <use xlink:href="#DejaVuSans-74" transform="translate(174.898438 0)"/>
     <use xlink:href="#DejaVuSans-75" transform="translate(214.107422 0)"/>
     <use xlink:href="#DejaVuSans-73" transform="translate(277.486328 0)"/>
     <use xlink:href="#DejaVuSans-32" transform="translate(329.585938 0)"/>
     <use xlink:href="#DejaVuSans-4d" transform="translate(393.208984 0)"/>
    </g>
   </g>
   <g id="text_24">
    <!-- Eiger4M -->
    <g transform="translate(182.123959 354.621367) rotate(-270) scale(0.07 -0.07)">
     <defs>
      <path id="DejaVuSans-45" d="M 628 4666 
L 3578 4666 
L 3578 4134 
L 1259 4134 
L 1259 2753 
L 3481 2753 
L 3481 2222 
L 1259 2222 
L 1259 531 
L 3634 531 
L 3634 0 
L 628 0 
L 628 4666 
z
" transform="scale(0.015625)"/>
      <path id="DejaVuSans-34" d="M 2419 4116 
L 825 1625 
L 2419 1625 
L 2419 4116 
z
M 2253 4666 
L 3047 4666 
L 3047 1625 
L 3713 1625 
L 3713 1100 
L 3047 1100 
L 3047 0 
L 2419 0 
L 2419 1100 
L 313 1100 
L 313 1709 
L 2253 4666 
z
" transform="scale(0.015625)"/>
     </defs>
     <use xlink:href="#DejaVuSans-45"/>
     <use xlink:href="#DejaVuSans-69" transform="translate(63.183594 0)"/>
     <use xlink:href="#DejaVuSans-67" transform="translate(90.966797 0)"/>
     <use xlink:href="#DejaVuSans-65" transform="translate(154.443359 0)"/>
     <use xlink:href="#DejaVuSans-72" transform="translate(215.966797 0)"/>
     <use xlink:href="#DejaVuSans-34" transform="translate(257.080078 0)"/>
     <use xlink:href="#DejaVuSans-4d" transform="translate(320.703125 0)"/>
    </g>
   </g>
   <g id="text_25">
    <!-- Pilatus6M -->
    <g transform="translate(210.284597 349.548555) rotate(-270) scale(0.07 -0.07)">
     <defs>
      <path id="DejaVuSans-36" d="M 2113 2584 
Q 1688 2584 1439 2293 
Q 1191 2003 1191 1497 
Q 1191 994 1439 701 
Q 1688 409 2113 409 
Q 2538 409 2786 701 
Q 3034 994 3034 1497 
Q 3034 2003 2786 2293 
Q 2538 2584 2113 2584 
z
M 3366 4563 
L 3366 3988 
Q 3128 4100 2886 4159 
Q 2644 4219 2406 4219 
Q 1781 4219 1451 3797 
Q 1122 3375 1075 2522 
Q 1259 2794 1537 2939 
Q 1816 3084 2150 3084 
Q 2853 3084 3261 2657 
Q 3669 2231 3669 1497 
Q 3669 778 3244 343 
Q 2819 -91 2113 -91 
Q 1303 -91 875 529 
Q 447 1150 447 2328 
Q 447 3434 972 4092 
Q 1497 4750 2381 4750 
Q 2619 4750 2861 4703 
Q 3103 4656 3366 4563 
z
" transform="scale(0.015625)"/>
     </defs>
     <use xlink:href="#DejaVuSans-50"/>
     <use xlink:href="#DejaVuSans-69" transform="translate(58.052734 0)"/>
     <use xlink:href="#DejaVuSans-6c" transform="translate(85.835938 0)"/>
     <use xlink:href="#DejaVuSans-61" transform="translate(113.619141 0)"/>
     <use xlink:href="#DejaVuSans-74" transform="translate(174.898438 0)"/>
     <use xlink:href="#DejaVuSans-75" transform="translate(214.107422 0)"/>
     <use xlink:href="#DejaVuSans-73" transform="translate(277.486328 0)"/>
     <use xlink:href="#DejaVuSans-36" transform="translate(329.585938 0)"/>
     <use xlink:href="#DejaVuSans-4d" transform="translate(393.208984 0)"/>
    </g>
   </g>
   <g id="text_26">
    <!-- Eiger9M -->
    <g transform="translate(274.154539 354.621367) rotate(-270) scale(0.07 -0.07)">
     <defs>
      <path id="DejaVuSans-39" d="M 703 97 
L 703 672 
Q 941 559 1184 500 
Q 1428 441 1663 441 
Q 2288 441 2617 861 
Q 2947 1281 2994 2138 
Q 2813 1869 2534 1725 
Q 2256 1581 1919 1581 
Q 1219 1581 811 2004 
Q 403 2428 403 3163 
Q 403 3881 828 4315 
Q 1253 4750 1959 4750 
Q 2769 4750 3195 4129 
Q 3622 3509 3622 2328 
Q 3622 1225 3098 567 
Q 2575 -91 1691 -91 
Q 1453 -91 1209 -44 
Q 966 3 703 97 
z
M 1959 2075 
Q 2384 2075 2632 2365 
Q 2881 2656 2881 3163 
Q 2881 3666 2632 3958 
Q 2384 4250 1959 4250 
Q 1534 4250 1286 3958 
Q 1038 3666 1038 3163 
Q 1038 2656 1286 2365 
Q 1534 2075 1959 2075 
z
" transform="scale(0.015625)"/>
     </defs>
     <use xlink:href="#DejaVuSans-45"/>
     <use xlink:href="#DejaVuSans-69" transform="translate(63.183594 0)"/>
     <use xlink:href="#DejaVuSans-67" transform="translate(90.966797 0)"/>
     <use xlink:href="#DejaVuSans-65" transform="translate(154.443359 0)"/>
     <use xlink:href="#DejaVuSans-72" transform="translate(215.966797 0)"/>
     <use xlink:href="#DejaVuSans-39" transform="translate(257.080078 0)"/>
     <use xlink:href="#DejaVuSans-4d" transform="translate(320.703125 0)"/>
    </g>
   </g>
   <g id="text_27">
    <!-- Mar3450 -->
    <g transform="translate(302.276281 352.089336) rotate(-270) scale(0.07 -0.07)">
     <defs>
      <path id="DejaVuSans-33" d="M 2597 2516 
Q 3050 2419 3304 2112 
Q 3559 1806 3559 1356 
Q 3559 666 3084 287 
Q 2609 -91 1734 -91 
Q 1441 -91 1130 -33 
Q 819 25 488 141 
L 488 750 
Q 750 597 1062 519 
Q 1375 441 1716 441 
Q 2309 441 2620 675 
Q 2931 909 2931 1356 
Q 2931 1769 2642 2001 
Q 2353 2234 1838 2234 
L 1294 2234 
L 1294 2753 
L 1863 2753 
Q 2328 2753 2575 2939 
Q 2822 3125 2822 3475 
Q 2822 3834 2567 4026 
Q 2313 4219 1838 4219 
Q 1578 4219 1281 4162 
Q 984 4106 628 3988 
L 628 4550 
Q 988 4650 1302 4700 
Q 1616 4750 1894 4750 
Q 2613 4750 3031 4423 
Q 3450 4097 3450 3541 
Q 3450 3153 3228 2886 
Q 3006 2619 2597 2516 
z
" transform="scale(0.015625)"/>
     </defs>
     <use xlink:href="#DejaVuSans-4d"/>
     <use xlink:href="#DejaVuSans-61" transform="translate(86.279297 0)"/>
     <use xlink:href="#DejaVuSans-72" transform="translate(147.558594 0)"/>
     <use xlink:href="#DejaVuSans-33" transform="translate(188.671875 0)"/>
     <use xlink:href="#DejaVuSans-34" transform="translate(252.294922 0)"/>
     <use xlink:href="#DejaVuSans-35" transform="translate(315.917969 0)"/>
     <use xlink:href="#DejaVuSans-30" transform="translate(379.541016 0)"/>
    </g>
   </g>
   <g id="text_28">
    <!-- Fairchild -->
    <g transform="translate(381.24668 354.151055) rotate(-270) scale(0.07 -0.07)">
     <defs>
      <path id="DejaVuSans-68" d="M 3513 2113 
L 3513 0 
L 2938 0 
L 2938 2094 
Q 2938 2591 2744 2837 
Q 2550 3084 2163 3084 
Q 1697 3084 1428 2787 
Q 1159 2491 1159 1978 
L 1159 0 
L 581 0 
L 581 4863 
L 1159 4863 
L 1159 2956 
Q 1366 3272 1645 3428 
Q 1925 3584 2291 3584 
Q 2894 3584 3203 3211 
Q 3513 2838 3513 2113 
z
" transform="scale(0.015625)"/>
     </defs>
     <use xlink:href="#DejaVuSans-46"/>
     <use xlink:href="#DejaVuSans-61" transform="translate(48.394531 0)"/>
     <use xlink:href="#DejaVuSans-69" transform="translate(109.673828 0)"/>
     <use xlink:href="#DejaVuSans-72" transform="translate(137.457031 0)"/>
     <use xlink:href="#DejaVuSans-63" transform="translate(176.320312 0)"/>
     <use xlink:href="#DejaVuSans-68" transform="translate(231.300781 0)"/>
     <use xlink:href="#DejaVuSans-69" transform="translate(294.679688 0)"/>
     <use xlink:href="#DejaVuSans-6c" transform="translate(322.462891 0)"/>
     <use xlink:href="#DejaVuSans-64" transform="translate(350.246094 0)"/>
    </g>
   </g>
   <g id="text_29">
    <!-- CPU: Intel64 Family 6 Model 140 Stepping 1, GenuineIntel -->
    <g transform="translate(96.14625 32.402625) scale(0.12 -0.12)">
     <defs>
      <path id="DejaVuSans-43" d="M 4122 4306 
L 4122 3641 
Q 3803 3938 3442 4084 
Q 3081 4231 2675 4231 
Q 1875 4231 1450 3742 
Q 1025 3253 1025 2328 
Q 1025 1406 1450 917 
Q 1875 428 2675 428 
Q 3081 428 3442 575 
Q 3803 722 4122 1019 
L 4122 359 
Q 3791 134 3420 21 
Q 3050 -91 2638 -91 
Q 1578 -91 968 557 
Q 359 1206 359 2328 
Q 359 3453 968 4101 
Q 1578 4750 2638 4750 
Q 3056 4750 3426 4639 
Q 3797 4528 4122 4306 
z
" transform="scale(0.015625)"/>
      <path id="DejaVuSans-55" d="M 556 4666 
L 1191 4666 
L 1191 1831 
Q 1191 1081 1462 751 
Q 1734 422 2344 422 
Q 2950 422 3222 751 
Q 3494 1081 3494 1831 
L 3494 4666 
L 4128 4666 
L 4128 1753 
Q 4128 841 3676 375 
Q 3225 -91 2344 -91 
Q 1459 -91 1007 375 
Q 556 841 556 1753 
L 556 4666 
z
" transform="scale(0.015625)"/>
      <path id="DejaVuSans-3a" d="M 750 794 
L 1409 794 
L 1409 0 
L 750 0 
L 750 794 
z
M 750 3309 
L 1409 3309 
L 1409 2516 
L 750 2516 
L 750 3309 
z
" transform="scale(0.015625)"/>
      <path id="DejaVuSans-79" d="M 2059 -325 
Q 1816 -950 1584 -1140 
Q 1353 -1331 966 -1331 
L 506 -1331 
L 506 -850 
L 844 -850 
Q 1081 -850 1212 -737 
Q 1344 -625 1503 -206 
L 1606 56 
L 191 3500 
L 800 3500 
L 1894 763 
L 2988 3500 
L 3597 3500 
L 2059 -325 
z
" transform="scale(0.015625)"/>
      <path id="DejaVuSans-53" d="M 3425 4513 
L 3425 3897 
Q 3066 4069 2747 4153 
Q 2428 4238 2131 4238 
Q 1616 4238 1336 4038 
Q 1056 3838 1056 3469 
Q 1056 3159 1242 3001 
Q 1428 2844 1947 2747 
L 2328 2669 
Q 3034 2534 3370 2195 
Q 3706 1856 3706 1288 
Q 3706 609 3251 259 
Q 2797 -91 1919 -91 
Q 1588 -91 1214 -16 
Q 841 59 441 206 
L 441 856 
Q 825 641 1194 531 
Q 1563 422 1919 422 
Q 2459 422 2753 634 
Q 3047 847 3047 1241 
Q 3047 1584 2836 1778 
Q 2625 1972 2144 2069 
L 1759 2144 
Q 1053 2284 737 2584 
Q 422 2884 422 3419 
Q 422 4038 858 4394 
Q 1294 4750 2059 4750 
Q 2388 4750 2728 4690 
Q 3069 4631 3425 4513 
z
" transform="scale(0.015625)"/>
      <path id="DejaVuSans-2c" d="M 750 794 
L 1409 794 
L 1409 256 
L 897 -744 
L 494 -744 
L 750 256 
L 750 794 
z
" transform="scale(0.015625)"/>
      <path id="DejaVuSans-47" d="M 3809 666 
L 3809 1919 
L 2778 1919 
L 2778 2438 
L 4434 2438 
L 4434 434 
Q 4069 175 3628 42 
Q 3188 -91 2688 -91 
Q 1594 -91 976 548 
Q 359 1188 359 2328 
Q 359 3472 976 4111 
Q 1594 4750 2688 4750 
Q 3144 4750 3555 4637 
Q 3966 4525 4313 4306 
L 4313 3634 
Q 3963 3931 3569 4081 
Q 3175 4231 2741 4231 
Q 1884 4231 1454 3753 
Q 1025 3275 1025 2328 
Q 1025 1384 1454 906 
Q 1884 428 2741 428 
Q 3075 428 3337 486 
Q 3600 544 3809 666 
z
" transform="scale(0.015625)"/>
     </defs>
     <use xlink:href="#DejaVuSans-43"/>
     <use xlink:href="#DejaVuSans-50" transform="translate(69.824219 0)"/>
     <use xlink:href="#DejaVuSans-55" transform="translate(130.126953 0)"/>
     <use xlink:href="#DejaVuSans-3a" transform="translate(203.320312 0)"/>
     <use xlink:href="#DejaVuSans-20" transform="translate(237.011719 0)"/>
     <use xlink:href="#DejaVuSans-49" transform="translate(268.798828 0)"/>
     <use xlink:href="#DejaVuSans-6e" transform="translate(298.291016 0)"/>
     <use xlink:href="#DejaVuSans-74" transform="translate(361.669922 0)"/>
     <use xlink:href="#DejaVuSans-65" transform="translate(400.878906 0)"/>
     <use xlink:href="#DejaVuSans-6c" transform="translate(462.402344 0)"/>
     <use xlink:href="#DejaVuSans-36" transform="translate(490.185547 0)"/>
     <use xlink:href="#DejaVuSans-34" transform="translate(553.808594 0)"/>
     <use xlink:href="#DejaVuSans-20" transform="translate(617.431641 0)"/>
     <use xlink:href="#DejaVuSans-46" transform="translate(649.21875 0)"/>
     <use xlink:href="#DejaVuSans-61" transform="translate(697.613281 0)"/>
     <use xlink:href="#DejaVuSans-6d" transform="translate(758.892578 0)"/>
     <use xlink:href="#DejaVuSans-69" transform="translate(856.304688 0)"/>
     <use xlink:href="#DejaVuSans-6c" transform="translate(884.087891 0)"/>
     <use xlink:href="#DejaVuSans-79" transform="translate(911.871094 0)"/>
     <use xlink:href="#DejaVuSans-20" transform="translate(971.050781 0)"/>
     <use xlink:href="#DejaVuSans-36" transform="translate(1002.837891 0)"/>
     <use xlink:href="#DejaVuSans-20" transform="translate(1066.460938 0)"/>
     <use xlink:href="#DejaVuSans-4d" transform="translate(1098.248047 0)"/>
     <use xlink:href="#DejaVuSans-6f" transform="translate(1184.527344 0)"/>
     <use xlink:href="#DejaVuSans-64" transform="translate(1245.708984 0)"/>
     <use xlink:href="#DejaVuSans-65" transform="translate(1309.185547 0)"/>
     <use xlink:href="#DejaVuSans-6c" transform="translate(1370.708984 0)"/>
     <use xlink:href="#DejaVuSans-20" transform="translate(1398.492188 0)"/>
     <use xlink:href="#DejaVuSans-31" transform="translate(1430.279297 0)"/>
     <use xlink:href="#DejaVuSans-34" transform="translate(1493.902344 0)"/>
     <use xlink:href="#DejaVuSans-30" transform="translate(1557.525391 0)"/>
     <use xlink:href="#DejaVuSans-20" transform="translate(1621.148438 0)"/>
     <use xlink:href="#DejaVuSans-53" transform="translate(1652.935547 0)"/>
     <use xlink:href="#DejaVuSans-74" transform="translate(1716.412109 0)"/>
     <use xlink:href="#DejaVuSans-65" transform="translate(1755.621094 0)"/>
     <use xlink:href="#DejaVuSans-70" transform="translate(1817.144531 0)"/>
     <use xlink:href="#DejaVuSans-70" transform="translate(1880.621094 0)"/>
     <use xlink:href="#DejaVuSans-69" transform="translate(1944.097656 0)"/>
     <use xlink:href="#DejaVuSans-6e" transform="translate(1971.880859 0)"/>
     <use xlink:href="#DejaVuSans-67" transform="translate(2035.259766 0)"/>
     <use xlink:href="#DejaVuSans-20" transform="translate(2098.736328 0)"/>
     <use xlink:href="#DejaVuSans-31" transform="translate(2130.523438 0)"/>
     <use xlink:href="#DejaVuSans-2c" transform="translate(2194.146484 0)"/>
     <use xlink:href="#DejaVuSans-20" transform="translate(2225.933594 0)"/>
     <use xlink:href="#DejaVuSans-47" transform="translate(2257.720703 0)"/>
     <use xlink:href="#DejaVuSans-65" transform="translate(2335.210938 0)"/>
     <use xlink:href="#DejaVuSans-6e" transform="translate(2396.734375 0)"/>
     <use xlink:href="#DejaVuSans-75" transform="translate(2460.113281 0)"/>
     <use xlink:href="#DejaVuSans-69" transform="translate(2523.492188 0)"/>
     <use xlink:href="#DejaVuSans-6e" transform="translate(2551.275391 0)"/>
     <use xlink:href="#DejaVuSans-65" transform="translate(2614.654297 0)"/>
     <use xlink:href="#DejaVuSans-49" transform="translate(2676.177734 0)"/>
     <use xlink:href="#DejaVuSans-6e" transform="translate(2705.669922 0)"/>
     <use xlink:href="#DejaVuSans-74" transform="translate(2769.048828 0)"/>
     <use xlink:href="#DejaVuSans-65" transform="translate(2808.257812 0)"/>
     <use xlink:href="#DejaVuSans-6c" transform="translate(2869.78125 0)"/>
    </g>
    <!-- GPU: Intel(R) Iris(R) Xe Graphics -->
    <g transform="translate(173.65125 45.84) scale(0.12 -0.12)">
     <defs>
      <path id="DejaVuSans-52" d="M 2841 2188 
Q 3044 2119 3236 1894 
Q 3428 1669 3622 1275 
L 4263 0 
L 3584 0 
L 2988 1197 
Q 2756 1666 2539 1819 
Q 2322 1972 1947 1972 
L 1259 1972 
L 1259 0 
L 628 0 
L 628 4666 
L 2053 4666 
Q 2853 4666 3247 4331 
Q 3641 3997 3641 3322 
Q 3641 2881 3436 2590 
Q 3231 2300 2841 2188 
z
M 1259 4147 
L 1259 2491 
L 2053 2491 
Q 2509 2491 2742 2702 
Q 2975 2913 2975 3322 
Q 2975 3731 2742 3939 
Q 2509 4147 2053 4147 
L 1259 4147 
z
" transform="scale(0.015625)"/>
      <path id="DejaVuSans-58" d="M 403 4666 
L 1081 4666 
L 2241 2931 
L 3406 4666 
L 4084 4666 
L 2584 2425 
L 4184 0 
L 3506 0 
L 2194 1984 
L 872 0 
L 191 0 
L 1856 2491 
L 403 4666 
z
" transform="scale(0.015625)"/>
     </defs>
     <use xlink:href="#DejaVuSans-47"/>
     <use xlink:href="#DejaVuSans-50" transform="translate(77.490234 0)"/>
     <use xlink:href="#DejaVuSans-55" transform="translate(137.792969 0)"/>
     <use xlink:href="#DejaVuSans-3a" transform="translate(210.986328 0)"/>
     <use xlink:href="#DejaVuSans-20" transform="translate(244.677734 0)"/>
     <use xlink:href="#DejaVuSans-49" transform="translate(276.464844 0)"/>
     <use xlink:href="#DejaVuSans-6e" transform="translate(305.957031 0)"/>
     <use xlink:href="#DejaVuSans-74" transform="translate(369.335938 0)"/>
     <use xlink:href="#DejaVuSans-65" transform="translate(408.544922 0)"/>
     <use xlink:href="#DejaVuSans-6c" transform="translate(470.068359 0)"/>
     <use xlink:href="#DejaVuSans-28" transform="translate(497.851562 0)"/>
     <use xlink:href="#DejaVuSans-52" transform="translate(536.865234 0)"/>
     <use xlink:href="#DejaVuSans-29" transform="translate(606.347656 0)"/>
     <use xlink:href="#DejaVuSans-20" transform="translate(645.361328 0)"/>
     <use xlink:href="#DejaVuSans-49" transform="translate(677.148438 0)"/>
     <use xlink:href="#DejaVuSans-72" transform="translate(706.640625 0)"/>
     <use xlink:href="#DejaVuSans-69" transform="translate(747.753906 0)"/>
     <use xlink:href="#DejaVuSans-73" transform="translate(775.537109 0)"/>
     <use xlink:href="#DejaVuSans-28" transform="translate(827.636719 0)"/>
     <use xlink:href="#DejaVuSans-52" transform="translate(866.650391 0)"/>
     <use xlink:href="#DejaVuSans-29" transform="translate(936.132812 0)"/>
     <use xlink:href="#DejaVuSans-20" transform="translate(975.146484 0)"/>
     <use xlink:href="#DejaVuSans-58" transform="translate(1006.933594 0)"/>
     <use xlink:href="#DejaVuSans-65" transform="translate(1070.939453 0)"/>
     <use xlink:href="#DejaVuSans-20" transform="translate(1132.462891 0)"/>
     <use xlink:href="#DejaVuSans-47" transform="translate(1164.25 0)"/>
     <use xlink:href="#DejaVuSans-72" transform="translate(1241.740234 0)"/>
     <use xlink:href="#DejaVuSans-61" transform="translate(1282.853516 0)"/>
     <use xlink:href="#DejaVuSans-70" transform="translate(1344.132812 0)"/>
     <use xlink:href="#DejaVuSans-68" transform="translate(1407.609375 0)"/>
     <use xlink:href="#DejaVuSans-69" transform="translate(1470.988281 0)"/>
     <use xlink:href="#DejaVuSans-63" transform="translate(1498.771484 0)"/>
     <use xlink:href="#DejaVuSans-73" transform="translate(1553.751953 0)"/>
    </g>
   </g>
   <g id="legend_1">
    <g id="patch_7">
     <path d="M 455.2 242.094375 
L 864.015625 242.094375 
Q 866.015625 242.094375 866.015625 240.094375 
L 866.015625 196.225625 
Q 866.015625 194.225625 864.015625 194.225625 
L 455.2 194.225625 
Q 453.2 194.225625 453.2 196.225625 
L 453.2 240.094375 
Q 453.2 242.094375 455.2 242.094375 
z
" style="fill: #ffffff; opacity: 0.8; stroke: #cccccc; stroke-linejoin: miter"/>
    </g>
    <g id="line2d_23">
     <path d="M 457.2 202.324062 
L 467.2 202.324062 
L 477.2 202.324062 
" style="fill: none; stroke: #1f77b4; stroke-width: 1.5; stroke-linecap: square"/>
     <g>
      <use xlink:href="#m336a021f6d" x="467.2" y="202.324062" style="fill: #1f77b4; stroke: #1f77b4"/>
     </g>
    </g>
    <g id="text_30">
     <!-- CPU / integrate1d_ng: bbox_histogram_cython -->
     <g transform="translate(485.2 205.824062) scale(0.1 -0.1)">
      <defs>
       <path id="DejaVuSans-2f" d="M 1625 4666 
L 2156 4666 
L 531 -594 
L 0 -594 
L 1625 4666 
z
" transform="scale(0.015625)"/>
       <path id="DejaVuSans-5f" d="M 3263 -1063 
L 3263 -1509 
L -63 -1509 
L -63 -1063 
L 3263 -1063 
z
" transform="scale(0.015625)"/>
       <path id="DejaVuSans-62" d="M 3116 1747 
Q 3116 2381 2855 2742 
Q 2594 3103 2138 3103 
Q 1681 3103 1420 2742 
Q 1159 2381 1159 1747 
Q 1159 1113 1420 752 
Q 1681 391 2138 391 
Q 2594 391 2855 752 
Q 3116 1113 3116 1747 
z
M 1159 2969 
Q 1341 3281 1617 3432 
Q 1894 3584 2278 3584 
Q 2916 3584 3314 3078 
Q 3713 2572 3713 1747 
Q 3713 922 3314 415 
Q 2916 -91 2278 -91 
Q 1894 -91 1617 61 
Q 1341 213 1159 525 
L 1159 0 
L 581 0 
L 581 4863 
L 1159 4863 
L 1159 2969 
z
" transform="scale(0.015625)"/>
      </defs>
      <use xlink:href="#DejaVuSans-43"/>
      <use xlink:href="#DejaVuSans-50" transform="translate(69.824219 0)"/>
      <use xlink:href="#DejaVuSans-55" transform="translate(130.126953 0)"/>
      <use xlink:href="#DejaVuSans-20" transform="translate(203.320312 0)"/>
      <use xlink:href="#DejaVuSans-2f" transform="translate(235.107422 0)"/>
      <use xlink:href="#DejaVuSans-20" transform="translate(268.798828 0)"/>
      <use xlink:href="#DejaVuSans-69" transform="translate(300.585938 0)"/>
      <use xlink:href="#DejaVuSans-6e" transform="translate(328.369141 0)"/>
      <use xlink:href="#DejaVuSans-74" transform="translate(391.748047 0)"/>
      <use xlink:href="#DejaVuSans-65" transform="translate(430.957031 0)"/>
      <use xlink:href="#DejaVuSans-67" transform="translate(492.480469 0)"/>
      <use xlink:href="#DejaVuSans-72" transform="translate(555.957031 0)"/>
      <use xlink:href="#DejaVuSans-61" transform="translate(597.070312 0)"/>
      <use xlink:href="#DejaVuSans-74" transform="translate(658.349609 0)"/>
      <use xlink:href="#DejaVuSans-65" transform="translate(697.558594 0)"/>
      <use xlink:href="#DejaVuSans-31" transform="translate(759.082031 0)"/>
      <use xlink:href="#DejaVuSans-64" transform="translate(822.705078 0)"/>
      <use xlink:href="#DejaVuSans-5f" transform="translate(886.181641 0)"/>
      <use xlink:href="#DejaVuSans-6e" transform="translate(936.181641 0)"/>
      <use xlink:href="#DejaVuSans-67" transform="translate(999.560547 0)"/>
      <use xlink:href="#DejaVuSans-3a" transform="translate(1063.037109 0)"/>
      <use xlink:href="#DejaVuSans-20" transform="translate(1096.728516 0)"/>
      <use xlink:href="#DejaVuSans-62" transform="translate(1128.515625 0)"/>
      <use xlink:href="#DejaVuSans-62" transform="translate(1191.992188 0)"/>
      <use xlink:href="#DejaVuSans-6f" transform="translate(1255.46875 0)"/>
      <use xlink:href="#DejaVuSans-78" transform="translate(1313.525391 0)"/>
      <use xlink:href="#DejaVuSans-5f" transform="translate(1372.705078 0)"/>
      <use xlink:href="#DejaVuSans-68" transform="translate(1422.705078 0)"/>
      <use xlink:href="#DejaVuSans-69" transform="translate(1486.083984 0)"/>
      <use xlink:href="#DejaVuSans-73" transform="translate(1513.867188 0)"/>
      <use xlink:href="#DejaVuSans-74" transform="translate(1565.966797 0)"/>
      <use xlink:href="#DejaVuSans-6f" transform="translate(1605.175781 0)"/>
      <use xlink:href="#DejaVuSans-67" transform="translate(1666.357422 0)"/>
      <use xlink:href="#DejaVuSans-72" transform="translate(1729.833984 0)"/>
      <use xlink:href="#DejaVuSans-61" transform="translate(1770.947266 0)"/>
      <use xlink:href="#DejaVuSans-6d" transform="translate(1832.226562 0)"/>
      <use xlink:href="#DejaVuSans-5f" transform="translate(1929.638672 0)"/>
      <use xlink:href="#DejaVuSans-63" transform="translate(1979.638672 0)"/>
      <use xlink:href="#DejaVuSans-79" transform="translate(2034.619141 0)"/>
      <use xlink:href="#DejaVuSans-74" transform="translate(2093.798828 0)"/>
      <use xlink:href="#DejaVuSans-68" transform="translate(2133.007812 0)"/>
      <use xlink:href="#DejaVuSans-6f" transform="translate(2196.386719 0)"/>
      <use xlink:href="#DejaVuSans-6e" transform="translate(2257.568359 0)"/>
     </g>
    </g>
    <g id="line2d_24">
     <path d="M 457.2 217.280312 
L 467.2 217.280312 
L 477.2 217.280312 
" style="fill: none; stroke: #ff7f0e; stroke-width: 1.5; stroke-linecap: square"/>
     <g>
      <use xlink:href="#m9d7976aec3" x="467.2" y="217.280312" style="fill: #ff7f0e; stroke: #ff7f0e"/>
     </g>
    </g>
    <g id="text_31">
     <!-- CPU / integrate1d_ng: bbox_csr_cython -->
     <g transform="translate(485.2 220.780312) scale(0.1 -0.1)">
      <use xlink:href="#DejaVuSans-43"/>
      <use xlink:href="#DejaVuSans-50" transform="translate(69.824219 0)"/>
      <use xlink:href="#DejaVuSans-55" transform="translate(130.126953 0)"/>
      <use xlink:href="#DejaVuSans-20" transform="translate(203.320312 0)"/>
      <use xlink:href="#DejaVuSans-2f" transform="translate(235.107422 0)"/>
      <use xlink:href="#DejaVuSans-20" transform="translate(268.798828 0)"/>
      <use xlink:href="#DejaVuSans-69" transform="translate(300.585938 0)"/>
      <use xlink:href="#DejaVuSans-6e" transform="translate(328.369141 0)"/>
      <use xlink:href="#DejaVuSans-74" transform="translate(391.748047 0)"/>
      <use xlink:href="#DejaVuSans-65" transform="translate(430.957031 0)"/>
      <use xlink:href="#DejaVuSans-67" transform="translate(492.480469 0)"/>
      <use xlink:href="#DejaVuSans-72" transform="translate(555.957031 0)"/>
      <use xlink:href="#DejaVuSans-61" transform="translate(597.070312 0)"/>
      <use xlink:href="#DejaVuSans-74" transform="translate(658.349609 0)"/>
      <use xlink:href="#DejaVuSans-65" transform="translate(697.558594 0)"/>
      <use xlink:href="#DejaVuSans-31" transform="translate(759.082031 0)"/>
      <use xlink:href="#DejaVuSans-64" transform="translate(822.705078 0)"/>
      <use xlink:href="#DejaVuSans-5f" transform="translate(886.181641 0)"/>
      <use xlink:href="#DejaVuSans-6e" transform="translate(936.181641 0)"/>
      <use xlink:href="#DejaVuSans-67" transform="translate(999.560547 0)"/>
      <use xlink:href="#DejaVuSans-3a" transform="translate(1063.037109 0)"/>
      <use xlink:href="#DejaVuSans-20" transform="translate(1096.728516 0)"/>
      <use xlink:href="#DejaVuSans-62" transform="translate(1128.515625 0)"/>
      <use xlink:href="#DejaVuSans-62" transform="translate(1191.992188 0)"/>
      <use xlink:href="#DejaVuSans-6f" transform="translate(1255.46875 0)"/>
      <use xlink:href="#DejaVuSans-78" transform="translate(1313.525391 0)"/>
      <use xlink:href="#DejaVuSans-5f" transform="translate(1372.705078 0)"/>
      <use xlink:href="#DejaVuSans-63" transform="translate(1422.705078 0)"/>
      <use xlink:href="#DejaVuSans-73" transform="translate(1477.685547 0)"/>
      <use xlink:href="#DejaVuSans-72" transform="translate(1529.785156 0)"/>
      <use xlink:href="#DejaVuSans-5f" transform="translate(1570.898438 0)"/>
      <use xlink:href="#DejaVuSans-63" transform="translate(1620.898438 0)"/>
      <use xlink:href="#DejaVuSans-79" transform="translate(1675.878906 0)"/>
      <use xlink:href="#DejaVuSans-74" transform="translate(1735.058594 0)"/>
      <use xlink:href="#DejaVuSans-68" transform="translate(1774.267578 0)"/>
      <use xlink:href="#DejaVuSans-6f" transform="translate(1837.646484 0)"/>
      <use xlink:href="#DejaVuSans-6e" transform="translate(1898.828125 0)"/>
     </g>
    </g>
    <g id="line2d_25">
     <path d="M 457.2 232.236562 
L 467.2 232.236562 
L 477.2 232.236562 
" style="fill: none; stroke-dasharray: 5.55,2.4; stroke-dashoffset: 0; stroke: #2ca02c; stroke-width: 1.5"/>
     <g>
      <use xlink:href="#mdf1884b741" x="467.2" y="232.236562" style="fill: #2ca02c; stroke: #2ca02c"/>
     </g>
    </g>
    <g id="text_32">
     <!-- GPU:Intel(R):Intel(R) Iris(R) Xe Graphics / integrate1d_ng: (bbox,csr,opencl) -->
     <g transform="translate(485.2 235.736562) scale(0.1 -0.1)">
      <use xlink:href="#DejaVuSans-47"/>
      <use xlink:href="#DejaVuSans-50" transform="translate(77.490234 0)"/>
      <use xlink:href="#DejaVuSans-55" transform="translate(137.792969 0)"/>
      <use xlink:href="#DejaVuSans-3a" transform="translate(210.986328 0)"/>
      <use xlink:href="#DejaVuSans-49" transform="translate(244.677734 0)"/>
      <use xlink:href="#DejaVuSans-6e" transform="translate(274.169922 0)"/>
      <use xlink:href="#DejaVuSans-74" transform="translate(337.548828 0)"/>
      <use xlink:href="#DejaVuSans-65" transform="translate(376.757812 0)"/>
      <use xlink:href="#DejaVuSans-6c" transform="translate(438.28125 0)"/>
      <use xlink:href="#DejaVuSans-28" transform="translate(466.064453 0)"/>
      <use xlink:href="#DejaVuSans-52" transform="translate(505.078125 0)"/>
      <use xlink:href="#DejaVuSans-29" transform="translate(574.560547 0)"/>
      <use xlink:href="#DejaVuSans-3a" transform="translate(613.574219 0)"/>
      <use xlink:href="#DejaVuSans-49" transform="translate(647.265625 0)"/>
      <use xlink:href="#DejaVuSans-6e" transform="translate(676.757812 0)"/>
      <use xlink:href="#DejaVuSans-74" transform="translate(740.136719 0)"/>
      <use xlink:href="#DejaVuSans-65" transform="translate(779.345703 0)"/>
      <use xlink:href="#DejaVuSans-6c" transform="translate(840.869141 0)"/>
      <use xlink:href="#DejaVuSans-28" transform="translate(868.652344 0)"/>
      <use xlink:href="#DejaVuSans-52" transform="translate(907.666016 0)"/>
      <use xlink:href="#DejaVuSans-29" transform="translate(977.148438 0)"/>
      <use xlink:href="#DejaVuSans-20" transform="translate(1016.162109 0)"/>
      <use xlink:href="#DejaVuSans-49" transform="translate(1047.949219 0)"/>
      <use xlink:href="#DejaVuSans-72" transform="translate(1077.441406 0)"/>
      <use xlink:href="#DejaVuSans-69" transform="translate(1118.554688 0)"/>
      <use xlink:href="#DejaVuSans-73" transform="translate(1146.337891 0)"/>
      <use xlink:href="#DejaVuSans-28" transform="translate(1198.4375 0)"/>
      <use xlink:href="#DejaVuSans-52" transform="translate(1237.451172 0)"/>
      <use xlink:href="#DejaVuSans-29" transform="translate(1306.933594 0)"/>
      <use xlink:href="#DejaVuSans-20" transform="translate(1345.947266 0)"/>
      <use xlink:href="#DejaVuSans-58" transform="translate(1377.734375 0)"/>
      <use xlink:href="#DejaVuSans-65" transform="translate(1441.740234 0)"/>
      <use xlink:href="#DejaVuSans-20" transform="translate(1503.263672 0)"/>
      <use xlink:href="#DejaVuSans-47" transform="translate(1535.050781 0)"/>
      <use xlink:href="#DejaVuSans-72" transform="translate(1612.541016 0)"/>
      <use xlink:href="#DejaVuSans-61" transform="translate(1653.654297 0)"/>
      <use xlink:href="#DejaVuSans-70" transform="translate(1714.933594 0)"/>
      <use xlink:href="#DejaVuSans-68" transform="translate(1778.410156 0)"/>
      <use xlink:href="#DejaVuSans-69" transform="translate(1841.789062 0)"/>
      <use xlink:href="#DejaVuSans-63" transform="translate(1869.572266 0)"/>
      <use xlink:href="#DejaVuSans-73" transform="translate(1924.552734 0)"/>
      <use xlink:href="#DejaVuSans-20" transform="translate(1976.652344 0)"/>
      <use xlink:href="#DejaVuSans-2f" transform="translate(2008.439453 0)"/>
      <use xlink:href="#DejaVuSans-20" transform="translate(2042.130859 0)"/>
      <use xlink:href="#DejaVuSans-69" transform="translate(2073.917969 0)"/>
      <use xlink:href="#DejaVuSans-6e" transform="translate(2101.701172 0)"/>
      <use xlink:href="#DejaVuSans-74" transform="translate(2165.080078 0)"/>
      <use xlink:href="#DejaVuSans-65" transform="translate(2204.289062 0)"/>
      <use xlink:href="#DejaVuSans-67" transform="translate(2265.8125 0)"/>
      <use xlink:href="#DejaVuSans-72" transform="translate(2329.289062 0)"/>
      <use xlink:href="#DejaVuSans-61" transform="translate(2370.402344 0)"/>
      <use xlink:href="#DejaVuSans-74" transform="translate(2431.681641 0)"/>
      <use xlink:href="#DejaVuSans-65" transform="translate(2470.890625 0)"/>
      <use xlink:href="#DejaVuSans-31" transform="translate(2532.414062 0)"/>
      <use xlink:href="#DejaVuSans-64" transform="translate(2596.037109 0)"/>
      <use xlink:href="#DejaVuSans-5f" transform="translate(2659.513672 0)"/>
      <use xlink:href="#DejaVuSans-6e" transform="translate(2709.513672 0)"/>
      <use xlink:href="#DejaVuSans-67" transform="translate(2772.892578 0)"/>
      <use xlink:href="#DejaVuSans-3a" transform="translate(2836.369141 0)"/>
      <use xlink:href="#DejaVuSans-20" transform="translate(2870.060547 0)"/>
      <use xlink:href="#DejaVuSans-28" transform="translate(2901.847656 0)"/>
      <use xlink:href="#DejaVuSans-62" transform="translate(2940.861328 0)"/>
      <use xlink:href="#DejaVuSans-62" transform="translate(3004.337891 0)"/>
      <use xlink:href="#DejaVuSans-6f" transform="translate(3067.814453 0)"/>
      <use xlink:href="#DejaVuSans-78" transform="translate(3125.871094 0)"/>
      <use xlink:href="#DejaVuSans-2c" transform="translate(3185.050781 0)"/>
      <use xlink:href="#DejaVuSans-63" transform="translate(3216.837891 0)"/>
      <use xlink:href="#DejaVuSans-73" transform="translate(3271.818359 0)"/>
      <use xlink:href="#DejaVuSans-72" transform="translate(3323.917969 0)"/>
      <use xlink:href="#DejaVuSans-2c" transform="translate(3365.03125 0)"/>
      <use xlink:href="#DejaVuSans-6f" transform="translate(3396.818359 0)"/>
      <use xlink:href="#DejaVuSans-70" transform="translate(3458 0)"/>
      <use xlink:href="#DejaVuSans-65" transform="translate(3521.476562 0)"/>
      <use xlink:href="#DejaVuSans-6e" transform="translate(3583 0)"/>
      <use xlink:href="#DejaVuSans-63" transform="translate(3646.378906 0)"/>
      <use xlink:href="#DejaVuSans-6c" transform="translate(3701.359375 0)"/>
      <use xlink:href="#DejaVuSans-29" transform="translate(3729.142578 0)"/>
     </g>
    </g>
   </g>
  </g>
 </g>
 <defs>
  <clipPath id="pb8211a4e26">
   <rect x="108" y="51.84" width="324" height="332.64"/>
  </clipPath>
 </defs>
</svg>
